PathFileType	3	(X/Y/Z)	F:\ViconData\AntennenMessung\Messung1\Session1\ID04.trc
DataRate	CameraRate	NumFrames	NumMarkers	Units	OrigDataRate	OrigDataStartFrame	OrigNumFrames
120.0	120.0	6	70	mm	120.0	1	1154	
Frame#	Time	Ashort			Along			Atop			A4			Bshort			Blong			Btop			B4			Cshort			Clong			Ctop			C4			Dshort			Dlong			Dtop			D4			Eshort			Elong			Etop			E4			Fshort			Flong			Ftop			F4			Gshort			Glong			Gtop			G4			Hshort			Hlong			Htop			H4			I1			I2			I3			I4			I5			WandAshort			WandAlong			WandAtop			WandA4			WandA15			WandBshort			WandB4			WandB5			WandBtop			WandBlong			WandCshort			WandClong			WandCtop			WandC4			WandC5			Acenter			Aantenna			Bcenter			Bantenna			Ccenter			Cantenna			Dcenter			Dantenna			Ecenter			Eantenna			Fcenter			Fantenna			Gcenter			Gantenna			Hcenter			Hantenna			Icenter			Iantenna			
		X1	Y1	Z1	X2	Y2	Z2	X3	Y3	Z3	X4	Y4	Z4	X5	Y5	Z5	X6	Y6	Z6	X7	Y7	Z7	X8	Y8	Z8	X9	Y9	Z9	X10	Y10	Z10	X11	Y11	Z11	X12	Y12	Z12	X13	Y13	Z13	X14	Y14	Z14	X15	Y15	Z15	X16	Y16	Z16	X17	Y17	Z17	X18	Y18	Z18	X19	Y19	Z19	X20	Y20	Z20	X21	Y21	Z21	X22	Y22	Z22	X23	Y23	Z23	X24	Y24	Z24	X25	Y25	Z25	X26	Y26	Z26	X27	Y27	Z27	X28	Y28	Z28	X29	Y29	Z29	X30	Y30	Z30	X31	Y31	Z31	X32	Y32	Z32	X33	Y33	Z33	X34	Y34	Z34	X35	Y35	Z35	X36	Y36	Z36	X37	Y37	Z37	X38	Y38	Z38	X39	Y39	Z39	X40	Y40	Z40	X41	Y41	Z41	X42	Y42	Z42	X43	Y43	Z43	X44	Y44	Z44	X45	Y45	Z45	X46	Y46	Z46	X47	Y47	Z47	X48	Y48	Z48	X49	Y49	Z49	X50	Y50	Z50	X51	Y51	Z51	X52	Y52	Z52	X53	Y53	Z53	X54	Y54	Z54	X55	Y55	Z55	X56	Y56	Z56	X57	Y57	Z57	X58	Y58	Z58	X59	Y59	Z59	X60	Y60	Z60	X61	Y61	Z61	X62	Y62	Z62	X63	Y63	Z63	X64	Y64	Z64	X65	Y65	Z65	X66	Y66	Z66	X67	Y67	Z67	X68	Y68	Z68	X69	Y69	Z69	X70	Y70	Z70	
1	0	-1038.2861	214.42778	-1644.1656	-1109.3109	203.71562	-1599.5908	-1063.601	172.59804	-1625.6414	-1054.1815	262.05109	-1634.9913	-1352.9883	235.22409	1003.9559	-1281.4677	227.42958	1052.2423	-1323.0479	194.05385	1020.7895	-1284.6753	287.79791	1052.7463	813.85797	187.72118	1209.5912	892.46649	178.45363	1179.226	844.09973	145.51537	1198.3121	860.51074	292.28558	1167.3402	1115.8719	210.06593	-1401.6333	1056.1251	194.40967	-1460.2198	1095.0298	163.7157	-1423.8376	1069.8816	238.58508	-1425.9705	-1204.556	1685.9795	-1563.1677	-1129.1066	1688.1984	-1606.0464	-1173.0981	1724.4327	-1582.0189	-1133.5671	1581.0355	-1603.5334	-1239.8032	1699.3846	1119.3431	-1309.5319	1698.9072	1071.6934	-1270.3715	1736.2062	1096.6802	-1244.6172	1594.4286	1106.5533	988.88428	1664.1837	1162.2281	955.92761	1702.3003	1181.0111	921.80463	1662.1689	1214.8416	939.76703	1659.3121	1159.8854	999.24054	1668.4945	-1579.5331	1058.9844	1670.2043	-1518.7231	1025.0482	1707.9547	-1551.1991	1059.2491	1672.1991	-1585.6616	-287.16394	140.21045	479.80603	-371.93253	148.02122	480.948	-327.57047	105.62937	481.08502	-323.90039	145.00922	512.41449	-324.6922	141.32146	434.28748																																														-1068.8159	209.82317	-1625.005	-1074.2262	248.44044	-1624.3451	-1321.788	231.82379	1025.0204	-1320.496	270.56012	1029.3595	847.88257	183.70982	1196.4479	851.7218	222.47426	1194.5558	1088.8987	202.99777	-1428.0826	1082.9185	241.31348	-1432.223	-1171.8466	1686.9413	-1581.7567	-1170.5453	1647.964	-1581.4843	-1271.0248	1699.1708	1098.0074	-1271.7124	1660.2019	1099.4041	953.30225	1705.3364	1182.5072	972.96991	1732.291	1162.3171	1026.6246	1669.2782	-1551.6602	1028.2129	1630.3132	-1552.1249	-324.08118	143.61209	480.30334	-320.51422	182.4404	479.50427
2	0.0083333333	-1038.2825	214.45886	-1644.1638	-1109.1909	203.51654	-1599.6891	-1063.582	172.61839	-1625.6252	-1054.1903	262.06433	-1635.0026	-1353.0817	235.07118	1003.9641	-1281.4419	227.08403	1052.4302	-1323.1075	194.04395	1020.8896	-1284.6599	287.80026	1052.7094	813.90387	187.74083	1209.5854	892.36853	178.21144	1179.2708	844.15491	145.51854	1198.2925	860.51575	292.66223	1167.1818	1115.8602	210.04182	-1401.6439	1056.0912	194.36282	-1460.192	1094.9794	163.48109	-1423.7561	1069.8988	238.57491	-1425.968	-1204.5476	1685.9899	-1563.1696	-1129.0989	1688.1964	-1606.0603	-1173.1064	1724.4473	-1582.0129	-1133.5481	1580.9839	-1603.4584	-1239.84	1699.4402	1119.3604	-1309.4192	1698.7468	1071.639	-1270.3391	1736.1592	1096.6666	-1244.6145	1594.3362	1106.657	988.82123	1664.145	1162.2714	955.30005	1701.1996	1182.3572	921.77136	1662.2485	1214.7501	939.73676	1659.3138	1159.8883	999.21454	1668.496	-1579.5349	1058.9667	1670.2056	-1518.7175	1025.0432	1707.9542	-1551.1956	1059.2454	1672.1903	-1585.6581	-287.27136	140.14552	480.0882	-371.35156	146.96912	481.43652	-327.56055	105.5937	481.11081	-323.86105	144.69897	512.82428	-324.7038	141.34966	434.28366																																														-1068.8948	209.73491	-1624.9634	-1074.4197	248.33542	-1624.2753	-1321.7924	231.58272	1025.132	-1320.4355	270.31256	1029.5089	848.04584	183.59433	1196.3945	852.0058	222.34467	1194.4631	1088.8655	202.96037	-1428.0872	1082.9316	241.27644	-1432.2905	-1171.8608	1686.9457	-1581.7511	-1170.5663	1647.9681	-1581.4792	-1270.9164	1699.1304	1098.0463	-1271.5238	1660.1622	1099.4983	951.47131	1705.4316	1184.6512	970.63617	1733.2971	1165.2291	1026.6116	1669.2798	-1551.6492	1028.1918	1630.3146	-1552.1063	-324.51794	143.1683	480.68549	-321.37045	182.03859	480.24551
3	0.016666667	-1038.2883	214.40442	-1644.1665	-1109.3267	203.7635	-1599.6185	-1063.5717	173.2039	-1625.8755	-1054.1873	262.02127	-1634.9879	-1353.105	235.05544	1003.9712	-1281.4828	227.41104	1052.2378	-1323.0782	194.05963	1020.869	-1284.7321	287.84705	1052.7905	813.87152	187.73756	1209.5096	892.40436	178.35077	1179.2208	844.56628	145.14	1198.2542	860.51526	292.54547	1167.2345	1115.865	210.04402	-1401.6312	1056.1001	194.37749	-1460.1967	1095.0338	163.52222	-1423.7733	1069.8588	238.51074	-1426.0188	-1204.4429	1685.8782	-1563.4042	-1129.1028	1688.1949	-1606.0514	-1173.1029	1724.4369	-1582.0188	-1133.5685	1581.025	-1603.5182	-1239.8256	1699.4259	1119.3517	-1309.51	1698.8845	1071.679	-1270.3732	1736.2031	1096.6714	-1244.7354	1593.7141	1106.2415	988.87775	1664.2064	1162.2507	955.78778	1702.2075	1181.0609	922.50964	1662.0133	1214.8357	939.73962	1659.3641	1159.8827	999.21814	1668.4845	-1579.5281	1058.7617	1669.9121	-1518.7611	1025.047	1707.9469	-1551.1936	1059.2606	1672.1281	-1585.4824	-287.34189	139.75046	480.1619	-371.94644	147.99045	480.99026	-327.60056	105.57687	481.14014	-323.96457	145.00011	512.38037	-324.99442	141.64177	433.77487																																														-1068.6094	209.86259	-1625.1522	-1073.9178	248.49211	-1624.3901	-1321.8607	231.72066	1025.0269	-1320.608	270.46515	1029.3044	848.37366	183.61362	1196.2026	852.20905	222.36951	1194.1361	1088.8938	202.97389	-1428.0612	1082.9307	241.28966	-1432.2255	-1171.8533	1686.8802	-1581.8518	-1170.5565	1647.9022	-1581.6786	-1271.0077	1699.1836	1098.0193	-1271.6755	1660.2151	1099.4381	953.39655	1704.9535	1182.4202	972.81372	1731.9482	1162.0421	1026.4901	1669.1382	-1551.6958	1027.9392	1630.1685	-1552.2003	-323.93124	143.31404	480.52014	-320.15744	182.12579	479.88251
4	0.025	-1038.2937	214.42253	-1644.1705	-1109.3131	203.73793	-1599.5779	-1063.5814	172.62318	-1625.6459	-1054.1942	262.04706	-1634.9874	-1352.9827	235.21971	1003.9412	-1281.5022	227.43448	1052.2299	-1323.1108	194.03062	1020.8604	-1284.7021	287.7865	1052.7415	813.87219	187.74202	1209.6149	892.44098	178.38669	1179.2959	844.0874	145.54547	1198.2452	860.57526	292.47336	1167.439	1115.8737	210.0359	-1401.6288	1056.0876	194.35918	-1460.1805	1094.9756	163.52831	-1423.8341	1069.9148	238.5871	-1425.9758	-1204.5476	1685.9845	-1563.176	-1129.0902	1688.1938	-1606.0441	-1173.1055	1724.4271	-1582.0112	-1133.5778	1581.0443	-1603.5372	-1239.8408	1699.4432	1119.3549	-1309.4675	1698.8127	1071.6628	-1270.3805	1736.2086	1096.6744	-1244.7537	1593.8097	1106.2137	988.789	1664.1207	1162.2594	955.7915	1702.1458	1181.0757	921.75214	1662.3127	1214.7766	939.75018	1659.3362	1159.8812	999.21973	1668.5005	-1579.5475	1058.9708	1670.2007	-1518.7213	1025.0535	1707.9547	-1551.1879	1059.2461	1672.1854	-1585.6616	-287.22574	140.16026	480.05081	-371.94635	147.9964	480.99945	-327.53485	105.62537	481.04361	-323.95856	145.00055	512.44696	-324.72256	141.36095	434.28625																																														-1068.7887	209.83467	-1625.0229	-1074.1927	248.45302	-1624.3765	-1321.7969	231.82315	1025.0087	-1320.4501	270.56717	1029.2614	847.94269	183.68517	1196.4674	851.86078	222.44577	1194.6605	1088.8308	202.9449	-1428.1132	1082.8578	241.25967	-1432.2727	-1171.8579	1686.9415	-1581.7472	-1170.5608	1647.964	-1581.4728	-1270.9734	1699.1611	1098.0299	-1271.5972	1660.1923	1099.4557	953.01935	1705.3401	1182.6565	972.64478	1732.3473	1162.4956	1026.6243	1669.2803	-1551.6498	1028.2069	1630.3152	-1552.1154	-324.03223	143.56462	480.46292	-320.4473	182.39497	479.86862
5	0.033333333	-1038.2426	214.29919	-1644.2594	-1109.3289	203.69359	-1599.6038	-1063.5828	173.19098	-1625.873	-1054.1758	262.04782	-1634.9943	-1352.938	235.47169	1003.9202	-1281.4036	227.11786	1052.384	-1323.0153	194.11708	1020.7706	-1284.6616	287.78418	1052.7799	813.82367	187.79475	1209.4271	892.47681	178.4489	1179.1902	844.13342	145.53835	1198.205	860.50439	292.59567	1167.3058	1115.856	210.04054	-1401.6191	1056.1018	194.32478	-1460.1567	1095.0251	163.53879	-1423.7386	1069.8704	238.51854	-1425.9957	-1204.4508	1685.8857	-1563.3915	-1129.1123	1688.2041	-1606.061	-1173.1063	1724.4158	-1581.9988	-1133.5381	1580.9877	-1603.4624	-1239.8219	1699.4241	1119.3506	-1309.4994	1698.8729	1071.6831	-1270.3744	1736.1984	1096.6799	-1244.7129	1593.8253	1106.2543	988.80676	1664.14	1162.2434	956.0531	1702.3522	1181.135	921.80627	1662.2185	1214.702	939.74323	1659.345	1159.889	999.22021	1668.5037	-1579.5447	1058.7639	1669.9331	-1518.7581	1025.0535	1707.9567	-1551.1886	1059.2622	1672.1974	-1585.642	-287.2695	140.0795	480.14072	-371.94617	147.94106	481.02341	-327.56564	105.60081	481.14062	-323.97086	144.98367	512.38513	-324.70721	141.35367	434.26178																																														-1068.6074	209.76895	-1625.1846	-1073.9141	248.3994	-1624.4573	-1321.587	231.81053	1025.1599	-1320.1206	270.52133	1029.6678	847.94421	183.74042	1196.3099	851.81061	222.50063	1194.3871	1088.8801	202.94572	-1428.0457	1082.906	241.25729	-1432.2329	-1171.8654	1686.8884	-1581.8468	-1170.5765	1647.91	-1581.6888	-1270.9993	1699.1774	1098.0215	-1271.6571	1660.2085	1099.4336	953.534	1705.2909	1182.588	973.3653	1732.2131	1162.5153	1026.5011	1669.1584	-1551.6942	1027.9551	1630.189	-1552.202	-324.05392	143.49463	480.52411	-320.45557	182.32314	479.89246
6	0.041666667	-1038.2964	214.43858	-1644.193	-1109.2141	203.43021	-1599.6904	-1063.5779	173.19836	-1625.854	-1054.196	262.05542	-1634.9774	-1352.9688	235.25916	1003.9545	-1281.4111	227.13512	1052.3539	-1323.0818	194.06013	1020.8394	-1284.7478	287.78629	1052.8175	813.84875	187.68771	1209.5581	892.37836	178.35927	1179.3231	844.10828	145.53107	1198.1805	860.63104	293.17996	1166.8036	1115.8629	210.02837	-1401.6338	1056.0927	194.33165	-1460.1487	1095.0308	163.55429	-1423.8231	1069.8787	238.59013	-1425.9786	-1204.5333	1685.9904	-1563.1859	-1129.1013	1688.1901	-1606.0437	-1173.1033	1724.4291	-1582.0051	-1133.5801	1581.0345	-1603.5175	-1239.8007	1699.3822	1119.3373	-1309.4589	1698.8068	1071.6591	-1270.3779	1736.194	1096.677	-1244.6119	1594.4081	1106.5679	988.80341	1664.1556	1162.2648	955.81793	1702.2749	1181.1381	922.4342	1662.0657	1214.7976	939.76239	1659.3247	1159.8794	999.21692	1668.5129	-1579.5289	1058.937	1670.1874	-1518.704	1025.0582	1707.968	-1551.1748	1059.2518	1672.1758	-1585.6323	-287.26526	140.09535	480.11441	-371.88467	147.87241	481.02106	-327.60059	105.62039	481.13379	-323.92896	144.98535	512.39056	-324.6998	141.35899	434.25653																																														-1068.7582	209.71005	-1625.0773	-1074.2355	248.31479	-1624.2561	-1321.6942	231.70853	1025.1075	-1320.2672	270.43433	1029.4978	847.9588	183.6358	1196.4252	851.87579	222.39749	1194.6395	1088.8529	202.93504	-1428.0765	1082.8427	241.24634	-1432.2144	-1171.8636	1686.943	-1581.7477	-1170.5748	1647.9652	-1581.4797	-1270.9763	1699.1246	1097.9988	-1271.6056	1660.1543	1099.3883	953.49884	1704.9547	1182.4648	973.02448	1731.9127	1162.1421	1026.6078	1669.2808	-1551.6311	1028.1686	1630.3147	-1552.0908	-324.12747	143.4832	480.50934	-320.56543	182.31493	479.86896
